<mxfile host="app.diagrams.net" modified="2023-05-08T02:59:00.678Z" agent="Mozilla/5.0 (Windows NT 10.0; Win64; x64) AppleWebKit/537.36 (KHTML, like Gecko) Chrome/111.0.0.0 Safari/537.36" etag="qVTRL3mww8_gpNmalBSi" version="21.2.9" type="device">
  <diagram name="PÃ¡gina-1" id="3axxO9yQK8yJrBC-dtDG">
    <mxGraphModel dx="2353" dy="1200" grid="1" gridSize="10" guides="1" tooltips="1" connect="1" arrows="1" fold="1" page="1" pageScale="1" pageWidth="2000" pageHeight="1000" math="0" shadow="0">
      <root>
        <mxCell id="0" />
        <mxCell id="1" parent="0" />
        <mxCell id="lIVeAZPHsfm-N3jlMj18-20" style="edgeStyle=orthogonalEdgeStyle;rounded=0;orthogonalLoop=1;jettySize=auto;html=1;exitX=1;exitY=0.5;exitDx=0;exitDy=0;entryX=0;entryY=0.5;entryDx=0;entryDy=0;fontSize=14;" parent="1" source="lIVeAZPHsfm-N3jlMj18-2" target="lIVeAZPHsfm-N3jlMj18-12" edge="1">
          <mxGeometry relative="1" as="geometry" />
        </mxCell>
        <mxCell id="lIVeAZPHsfm-N3jlMj18-2" value="" style="ellipse;whiteSpace=wrap;html=1;aspect=fixed;" parent="1" vertex="1">
          <mxGeometry x="611" y="30" width="210" height="210" as="geometry" />
        </mxCell>
        <mxCell id="lIVeAZPHsfm-N3jlMj18-4" style="edgeStyle=orthogonalEdgeStyle;rounded=0;orthogonalLoop=1;jettySize=auto;html=1;entryX=0;entryY=0.5;entryDx=0;entryDy=0;" parent="1" source="lIVeAZPHsfm-N3jlMj18-3" target="lIVeAZPHsfm-N3jlMj18-2" edge="1">
          <mxGeometry relative="1" as="geometry">
            <Array as="points">
              <mxPoint x="491" y="135" />
            </Array>
          </mxGeometry>
        </mxCell>
        <mxCell id="lIVeAZPHsfm-N3jlMj18-3" value="&lt;font style=&quot;font-size: 14px;&quot;&gt;&lt;b&gt;Start&lt;/b&gt;&lt;/font&gt;" style="text;html=1;strokeColor=none;fillColor=none;align=center;verticalAlign=middle;whiteSpace=wrap;rounded=0;" parent="1" vertex="1">
          <mxGeometry x="461" y="120" width="60" height="30" as="geometry" />
        </mxCell>
        <mxCell id="lIVeAZPHsfm-N3jlMj18-5" value="IRWrite" style="text;html=1;strokeColor=none;fillColor=none;align=center;verticalAlign=middle;whiteSpace=wrap;rounded=0;fontSize=14;" parent="1" vertex="1">
          <mxGeometry x="686" y="60" width="60" height="30" as="geometry" />
        </mxCell>
        <mxCell id="lIVeAZPHsfm-N3jlMj18-6" value="InstrRead" style="text;html=1;strokeColor=none;fillColor=none;align=center;verticalAlign=middle;whiteSpace=wrap;rounded=0;fontSize=14;" parent="1" vertex="1">
          <mxGeometry x="686" y="80" width="60" height="30" as="geometry" />
        </mxCell>
        <mxCell id="lIVeAZPHsfm-N3jlMj18-7" value="PCWrite" style="text;html=1;strokeColor=none;fillColor=none;align=center;verticalAlign=middle;whiteSpace=wrap;rounded=0;fontSize=14;" parent="1" vertex="1">
          <mxGeometry x="686" y="100" width="60" height="30" as="geometry" />
        </mxCell>
        <mxCell id="lIVeAZPHsfm-N3jlMj18-8" value="PCSource = AluOut" style="text;html=1;strokeColor=none;fillColor=none;align=center;verticalAlign=middle;whiteSpace=wrap;rounded=0;fontSize=14;" parent="1" vertex="1">
          <mxGeometry x="653.5" y="120" width="125" height="30" as="geometry" />
        </mxCell>
        <mxCell id="lIVeAZPHsfm-N3jlMj18-9" value="SelAluA = PC" style="text;html=1;strokeColor=none;fillColor=none;align=center;verticalAlign=middle;whiteSpace=wrap;rounded=0;fontSize=14;" parent="1" vertex="1">
          <mxGeometry x="653.5" y="140" width="125" height="30" as="geometry" />
        </mxCell>
        <mxCell id="lIVeAZPHsfm-N3jlMj18-10" value="SelAluB =&amp;nbsp; PCINC" style="text;html=1;strokeColor=none;fillColor=none;align=center;verticalAlign=middle;whiteSpace=wrap;rounded=0;fontSize=14;" parent="1" vertex="1">
          <mxGeometry x="653.5" y="160" width="125" height="30" as="geometry" />
        </mxCell>
        <mxCell id="lIVeAZPHsfm-N3jlMj18-11" value="AluCtrl =&amp;nbsp; ADD" style="text;html=1;strokeColor=none;fillColor=none;align=center;verticalAlign=middle;whiteSpace=wrap;rounded=0;fontSize=14;" parent="1" vertex="1">
          <mxGeometry x="653.5" y="180" width="125" height="30" as="geometry" />
        </mxCell>
        <mxCell id="Dzcakjx7eH07sra7kQO5-63" style="edgeStyle=orthogonalEdgeStyle;rounded=0;orthogonalLoop=1;jettySize=auto;html=1;exitX=0;exitY=1;exitDx=0;exitDy=0;curved=1;" parent="1" source="lIVeAZPHsfm-N3jlMj18-12" target="lIVeAZPHsfm-N3jlMj18-51" edge="1">
          <mxGeometry relative="1" as="geometry">
            <Array as="points">
              <mxPoint x="964" y="250" />
              <mxPoint x="376" y="250" />
            </Array>
          </mxGeometry>
        </mxCell>
        <mxCell id="Dzcakjx7eH07sra7kQO5-69" value="Load, Store" style="edgeLabel;html=1;align=center;verticalAlign=middle;resizable=0;points=[];" parent="Dzcakjx7eH07sra7kQO5-63" vertex="1" connectable="0">
          <mxGeometry x="0.5508" y="6" relative="1" as="geometry">
            <mxPoint x="-124" y="14" as="offset" />
          </mxGeometry>
        </mxCell>
        <mxCell id="Dzcakjx7eH07sra7kQO5-64" style="edgeStyle=orthogonalEdgeStyle;rounded=0;orthogonalLoop=1;jettySize=auto;html=1;exitX=0;exitY=1;exitDx=0;exitDy=0;curved=1;" parent="1" source="lIVeAZPHsfm-N3jlMj18-12" target="lIVeAZPHsfm-N3jlMj18-23" edge="1">
          <mxGeometry relative="1" as="geometry">
            <Array as="points">
              <mxPoint x="964" y="270" />
              <mxPoint x="676" y="270" />
            </Array>
          </mxGeometry>
        </mxCell>
        <mxCell id="Dzcakjx7eH07sra7kQO5-70" value="ADD, SUB ,AND, OR, ..." style="edgeLabel;html=1;align=center;verticalAlign=middle;resizable=0;points=[];" parent="Dzcakjx7eH07sra7kQO5-64" vertex="1" connectable="0">
          <mxGeometry x="0.0356" y="1" relative="1" as="geometry">
            <mxPoint x="-211" y="9" as="offset" />
          </mxGeometry>
        </mxCell>
        <mxCell id="Dzcakjx7eH07sra7kQO5-65" style="edgeStyle=orthogonalEdgeStyle;rounded=0;orthogonalLoop=1;jettySize=auto;html=1;exitX=0.292;exitY=0.96;exitDx=0;exitDy=0;entryX=0.5;entryY=0;entryDx=0;entryDy=0;curved=1;exitPerimeter=0;" parent="1" source="lIVeAZPHsfm-N3jlMj18-12" target="lIVeAZPHsfm-N3jlMj18-28" edge="1">
          <mxGeometry relative="1" as="geometry">
            <Array as="points">
              <mxPoint x="971" y="209" />
              <mxPoint x="971" y="280" />
              <mxPoint x="856" y="280" />
            </Array>
          </mxGeometry>
        </mxCell>
        <mxCell id="Dzcakjx7eH07sra7kQO5-71" value="ADDI, ANDI, ORI, ...." style="edgeLabel;html=1;align=center;verticalAlign=middle;resizable=0;points=[];" parent="Dzcakjx7eH07sra7kQO5-65" vertex="1" connectable="0">
          <mxGeometry x="0.3735" y="1" relative="1" as="geometry">
            <mxPoint x="-103" y="17" as="offset" />
          </mxGeometry>
        </mxCell>
        <mxCell id="Dzcakjx7eH07sra7kQO5-66" style="edgeStyle=orthogonalEdgeStyle;rounded=0;orthogonalLoop=1;jettySize=auto;html=1;entryX=0.5;entryY=0;entryDx=0;entryDy=0;curved=1;" parent="1" source="lIVeAZPHsfm-N3jlMj18-12" target="Dzcakjx7eH07sra7kQO5-1" edge="1">
          <mxGeometry relative="1" as="geometry">
            <Array as="points">
              <mxPoint x="1071" y="255" />
              <mxPoint x="1346" y="255" />
            </Array>
          </mxGeometry>
        </mxCell>
        <mxCell id="Dzcakjx7eH07sra7kQO5-72" value="BEQ, BNE, BGT, ..." style="edgeLabel;html=1;align=center;verticalAlign=middle;resizable=0;points=[];" parent="Dzcakjx7eH07sra7kQO5-66" vertex="1" connectable="0">
          <mxGeometry x="0.5861" y="-1" relative="1" as="geometry">
            <mxPoint x="7" y="-16" as="offset" />
          </mxGeometry>
        </mxCell>
        <mxCell id="Dzcakjx7eH07sra7kQO5-67" value="JAL" style="edgeStyle=orthogonalEdgeStyle;rounded=0;orthogonalLoop=1;jettySize=auto;html=1;exitX=1;exitY=1;exitDx=0;exitDy=0;entryX=0.5;entryY=0;entryDx=0;entryDy=0;curved=1;" parent="1" source="lIVeAZPHsfm-N3jlMj18-12" target="Dzcakjx7eH07sra7kQO5-8" edge="1">
          <mxGeometry x="0.7891" y="-35" relative="1" as="geometry">
            <mxPoint as="offset" />
          </mxGeometry>
        </mxCell>
        <mxCell id="Dzcakjx7eH07sra7kQO5-68" style="edgeStyle=orthogonalEdgeStyle;rounded=0;orthogonalLoop=1;jettySize=auto;html=1;exitX=1;exitY=0.5;exitDx=0;exitDy=0;curved=1;" parent="1" source="lIVeAZPHsfm-N3jlMj18-12" target="Dzcakjx7eH07sra7kQO5-15" edge="1">
          <mxGeometry relative="1" as="geometry" />
        </mxCell>
        <mxCell id="Dzcakjx7eH07sra7kQO5-73" value="JALR" style="edgeLabel;html=1;align=center;verticalAlign=middle;resizable=0;points=[];" parent="Dzcakjx7eH07sra7kQO5-68" vertex="1" connectable="0">
          <mxGeometry x="0.8793" y="-9" relative="1" as="geometry">
            <mxPoint x="-12" y="10" as="offset" />
          </mxGeometry>
        </mxCell>
        <mxCell id="lIVeAZPHsfm-N3jlMj18-12" value="" style="ellipse;whiteSpace=wrap;html=1;aspect=fixed;" parent="1" vertex="1">
          <mxGeometry x="941" y="55" width="160" height="160" as="geometry" />
        </mxCell>
        <mxCell id="lIVeAZPHsfm-N3jlMj18-17" value="SelAluA = CurrentPC" style="text;html=1;strokeColor=none;fillColor=none;align=center;verticalAlign=middle;whiteSpace=wrap;rounded=0;fontSize=14;" parent="1" vertex="1">
          <mxGeometry x="952.25" y="105" width="137.5" height="30" as="geometry" />
        </mxCell>
        <mxCell id="lIVeAZPHsfm-N3jlMj18-18" value="SelAluB =&amp;nbsp; Immediate" style="text;html=1;strokeColor=none;fillColor=none;align=center;verticalAlign=middle;whiteSpace=wrap;rounded=0;fontSize=14;" parent="1" vertex="1">
          <mxGeometry x="952.25" y="125" width="137.5" height="30" as="geometry" />
        </mxCell>
        <mxCell id="lIVeAZPHsfm-N3jlMj18-19" value="AluCtrl =&amp;nbsp; ADD" style="text;html=1;strokeColor=none;fillColor=none;align=center;verticalAlign=middle;whiteSpace=wrap;rounded=0;fontSize=14;" parent="1" vertex="1">
          <mxGeometry x="952.25" y="145" width="125" height="30" as="geometry" />
        </mxCell>
        <mxCell id="lIVeAZPHsfm-N3jlMj18-21" value="&lt;b&gt;&lt;u&gt;FETCH&lt;/u&gt;&lt;/b&gt;" style="text;html=1;strokeColor=none;fillColor=none;align=center;verticalAlign=middle;whiteSpace=wrap;rounded=0;fontSize=14;" parent="1" vertex="1">
          <mxGeometry x="631" y="40" width="170" height="30" as="geometry" />
        </mxCell>
        <mxCell id="lIVeAZPHsfm-N3jlMj18-22" value="&lt;u&gt;&lt;b&gt;DECODE&lt;/b&gt;&lt;/u&gt;" style="text;html=1;strokeColor=none;fillColor=none;align=center;verticalAlign=middle;whiteSpace=wrap;rounded=0;fontSize=14;" parent="1" vertex="1">
          <mxGeometry x="936" y="75" width="170" height="30" as="geometry" />
        </mxCell>
        <mxCell id="lIVeAZPHsfm-N3jlMj18-43" style="edgeStyle=orthogonalEdgeStyle;rounded=0;orthogonalLoop=1;jettySize=auto;html=1;fontSize=14;fontColor=#000000;" parent="1" source="lIVeAZPHsfm-N3jlMj18-23" target="lIVeAZPHsfm-N3jlMj18-38" edge="1">
          <mxGeometry relative="1" as="geometry">
            <Array as="points">
              <mxPoint x="676" y="501" />
              <mxPoint x="755" y="501" />
            </Array>
          </mxGeometry>
        </mxCell>
        <mxCell id="lIVeAZPHsfm-N3jlMj18-23" value="" style="ellipse;whiteSpace=wrap;html=1;aspect=fixed;" parent="1" vertex="1">
          <mxGeometry x="596" y="310" width="160" height="160" as="geometry" />
        </mxCell>
        <mxCell id="lIVeAZPHsfm-N3jlMj18-24" value="SelAluA = RegA" style="text;html=1;strokeColor=none;fillColor=none;align=center;verticalAlign=middle;whiteSpace=wrap;rounded=0;fontSize=14;" parent="1" vertex="1">
          <mxGeometry x="607.25" y="360" width="137.5" height="30" as="geometry" />
        </mxCell>
        <mxCell id="lIVeAZPHsfm-N3jlMj18-25" value="SelAluB =&amp;nbsp; RegB" style="text;html=1;strokeColor=none;fillColor=none;align=center;verticalAlign=middle;whiteSpace=wrap;rounded=0;fontSize=14;" parent="1" vertex="1">
          <mxGeometry x="607.25" y="380" width="137.5" height="30" as="geometry" />
        </mxCell>
        <mxCell id="lIVeAZPHsfm-N3jlMj18-26" value="AluCtrl =&amp;nbsp; opcode" style="text;html=1;strokeColor=none;fillColor=none;align=center;verticalAlign=middle;whiteSpace=wrap;rounded=0;fontSize=14;" parent="1" vertex="1">
          <mxGeometry x="613.5" y="400" width="125" height="30" as="geometry" />
        </mxCell>
        <mxCell id="lIVeAZPHsfm-N3jlMj18-27" value="&lt;u&gt;&lt;b&gt;EX_typeR&lt;/b&gt;&lt;/u&gt;" style="text;html=1;strokeColor=none;fillColor=none;align=center;verticalAlign=middle;whiteSpace=wrap;rounded=0;fontSize=14;" parent="1" vertex="1">
          <mxGeometry x="591" y="330" width="170" height="30" as="geometry" />
        </mxCell>
        <mxCell id="Dzcakjx7eH07sra7kQO5-52" style="edgeStyle=orthogonalEdgeStyle;rounded=0;orthogonalLoop=1;jettySize=auto;html=1;exitX=0.5;exitY=1;exitDx=0;exitDy=0;entryX=0.5;entryY=0;entryDx=0;entryDy=0;" parent="1" source="lIVeAZPHsfm-N3jlMj18-28" target="lIVeAZPHsfm-N3jlMj18-38" edge="1">
          <mxGeometry relative="1" as="geometry" />
        </mxCell>
        <mxCell id="lIVeAZPHsfm-N3jlMj18-28" value="" style="ellipse;whiteSpace=wrap;html=1;aspect=fixed;" parent="1" vertex="1">
          <mxGeometry x="776" y="315" width="160" height="160" as="geometry" />
        </mxCell>
        <mxCell id="lIVeAZPHsfm-N3jlMj18-29" value="SelAluA = RegA" style="text;html=1;strokeColor=none;fillColor=none;align=center;verticalAlign=middle;whiteSpace=wrap;rounded=0;fontSize=14;" parent="1" vertex="1">
          <mxGeometry x="787.25" y="365" width="137.5" height="30" as="geometry" />
        </mxCell>
        <mxCell id="lIVeAZPHsfm-N3jlMj18-30" value="SelAluB =&amp;nbsp; Immediate" style="text;html=1;strokeColor=none;fillColor=none;align=center;verticalAlign=middle;whiteSpace=wrap;rounded=0;fontSize=14;" parent="1" vertex="1">
          <mxGeometry x="787.25" y="385" width="137.5" height="30" as="geometry" />
        </mxCell>
        <mxCell id="lIVeAZPHsfm-N3jlMj18-31" value="AluCtrl =&amp;nbsp; opcode" style="text;html=1;strokeColor=none;fillColor=none;align=center;verticalAlign=middle;whiteSpace=wrap;rounded=0;fontSize=14;" parent="1" vertex="1">
          <mxGeometry x="793.5" y="405" width="125" height="30" as="geometry" />
        </mxCell>
        <mxCell id="lIVeAZPHsfm-N3jlMj18-32" value="&lt;u&gt;&lt;b&gt;EX_typeRImm&lt;/b&gt;&lt;/u&gt;" style="text;html=1;strokeColor=none;fillColor=none;align=center;verticalAlign=middle;whiteSpace=wrap;rounded=0;fontSize=14;" parent="1" vertex="1">
          <mxGeometry x="771" y="335" width="170" height="30" as="geometry" />
        </mxCell>
        <mxCell id="Dzcakjx7eH07sra7kQO5-42" style="edgeStyle=orthogonalEdgeStyle;rounded=0;orthogonalLoop=1;jettySize=auto;html=1;exitX=0.5;exitY=1;exitDx=0;exitDy=0;entryX=0;entryY=1;entryDx=0;entryDy=0;" parent="1" source="lIVeAZPHsfm-N3jlMj18-38" target="lIVeAZPHsfm-N3jlMj18-2" edge="1">
          <mxGeometry relative="1" as="geometry">
            <Array as="points">
              <mxPoint x="755" y="940" />
              <mxPoint x="61.000000000000114" y="940" />
              <mxPoint x="61.000000000000114" y="209" />
            </Array>
          </mxGeometry>
        </mxCell>
        <mxCell id="lIVeAZPHsfm-N3jlMj18-38" value="" style="ellipse;whiteSpace=wrap;html=1;aspect=fixed;" parent="1" vertex="1">
          <mxGeometry x="674.75" y="532.5" width="160" height="160" as="geometry" />
        </mxCell>
        <mxCell id="lIVeAZPHsfm-N3jlMj18-39" value="RegDst = AluReg" style="text;html=1;strokeColor=none;fillColor=none;align=center;verticalAlign=middle;whiteSpace=wrap;rounded=0;fontSize=14;" parent="1" vertex="1">
          <mxGeometry x="686" y="590" width="137.5" height="30" as="geometry" />
        </mxCell>
        <mxCell id="lIVeAZPHsfm-N3jlMj18-40" value="RegWrite" style="text;html=1;strokeColor=none;fillColor=none;align=center;verticalAlign=middle;whiteSpace=wrap;rounded=0;fontSize=14;" parent="1" vertex="1">
          <mxGeometry x="686" y="620" width="137.5" height="30" as="geometry" />
        </mxCell>
        <mxCell id="lIVeAZPHsfm-N3jlMj18-42" value="&lt;u&gt;&lt;b&gt;MEM_typeR&lt;/b&gt;&lt;/u&gt;" style="text;html=1;strokeColor=none;fillColor=none;align=center;verticalAlign=middle;whiteSpace=wrap;rounded=0;fontSize=14;" parent="1" vertex="1">
          <mxGeometry x="674.75" y="550" width="170" height="30" as="geometry" />
        </mxCell>
        <mxCell id="Dzcakjx7eH07sra7kQO5-24" style="edgeStyle=orthogonalEdgeStyle;rounded=0;orthogonalLoop=1;jettySize=auto;html=1;exitX=0.5;exitY=1;exitDx=0;exitDy=0;entryX=0.5;entryY=0;entryDx=0;entryDy=0;" parent="1" source="lIVeAZPHsfm-N3jlMj18-51" target="lIVeAZPHsfm-N3jlMj18-56" edge="1">
          <mxGeometry relative="1" as="geometry" />
        </mxCell>
        <mxCell id="Dzcakjx7eH07sra7kQO5-25" style="edgeStyle=orthogonalEdgeStyle;rounded=0;orthogonalLoop=1;jettySize=auto;html=1;exitX=1;exitY=1;exitDx=0;exitDy=0;" parent="1" source="lIVeAZPHsfm-N3jlMj18-51" target="lIVeAZPHsfm-N3jlMj18-67" edge="1">
          <mxGeometry relative="1" as="geometry" />
        </mxCell>
        <mxCell id="lIVeAZPHsfm-N3jlMj18-51" value="" style="ellipse;whiteSpace=wrap;html=1;aspect=fixed;" parent="1" vertex="1">
          <mxGeometry x="296" y="310" width="160" height="160" as="geometry" />
        </mxCell>
        <mxCell id="lIVeAZPHsfm-N3jlMj18-52" value="SelAluA = RegA" style="text;html=1;strokeColor=none;fillColor=none;align=center;verticalAlign=middle;whiteSpace=wrap;rounded=0;fontSize=14;" parent="1" vertex="1">
          <mxGeometry x="307.25" y="360" width="137.5" height="30" as="geometry" />
        </mxCell>
        <mxCell id="lIVeAZPHsfm-N3jlMj18-53" value="SelAluB =&amp;nbsp; Immediate" style="text;html=1;strokeColor=none;fillColor=none;align=center;verticalAlign=middle;whiteSpace=wrap;rounded=0;fontSize=14;" parent="1" vertex="1">
          <mxGeometry x="307.25" y="380" width="137.5" height="30" as="geometry" />
        </mxCell>
        <mxCell id="lIVeAZPHsfm-N3jlMj18-54" value="AluCtrl =&amp;nbsp; ADD" style="text;html=1;strokeColor=none;fillColor=none;align=center;verticalAlign=middle;whiteSpace=wrap;rounded=0;fontSize=14;" parent="1" vertex="1">
          <mxGeometry x="313.5" y="400" width="125" height="30" as="geometry" />
        </mxCell>
        <mxCell id="lIVeAZPHsfm-N3jlMj18-55" value="&lt;u&gt;&lt;b&gt;EX_typeMem&lt;/b&gt;&lt;/u&gt;" style="text;html=1;strokeColor=none;fillColor=none;align=center;verticalAlign=middle;whiteSpace=wrap;rounded=0;fontSize=14;" parent="1" vertex="1">
          <mxGeometry x="291" y="330" width="170" height="30" as="geometry" />
        </mxCell>
        <mxCell id="Dzcakjx7eH07sra7kQO5-26" style="edgeStyle=orthogonalEdgeStyle;rounded=0;orthogonalLoop=1;jettySize=auto;html=1;exitX=0.5;exitY=1;exitDx=0;exitDy=0;entryX=0.549;entryY=0.013;entryDx=0;entryDy=0;entryPerimeter=0;" parent="1" source="lIVeAZPHsfm-N3jlMj18-56" target="lIVeAZPHsfm-N3jlMj18-62" edge="1">
          <mxGeometry relative="1" as="geometry">
            <Array as="points">
              <mxPoint x="323" y="670" />
            </Array>
          </mxGeometry>
        </mxCell>
        <mxCell id="lIVeAZPHsfm-N3jlMj18-56" value="" style="ellipse;whiteSpace=wrap;html=1;aspect=fixed;" parent="1" vertex="1">
          <mxGeometry x="231" y="510" width="160" height="160" as="geometry" />
        </mxCell>
        <mxCell id="lIVeAZPHsfm-N3jlMj18-60" value="&lt;u&gt;&lt;b&gt;MEM_Load&lt;/b&gt;&lt;/u&gt;" style="text;html=1;strokeColor=none;fillColor=none;align=center;verticalAlign=middle;whiteSpace=wrap;rounded=0;fontSize=14;" parent="1" vertex="1">
          <mxGeometry x="226" y="530" width="170" height="30" as="geometry" />
        </mxCell>
        <mxCell id="Dzcakjx7eH07sra7kQO5-48" style="edgeStyle=orthogonalEdgeStyle;rounded=0;orthogonalLoop=1;jettySize=auto;html=1;exitX=0.5;exitY=1;exitDx=0;exitDy=0;endArrow=none;endFill=0;" parent="1" source="lIVeAZPHsfm-N3jlMj18-62" edge="1">
          <mxGeometry relative="1" as="geometry">
            <mxPoint x="316" y="940" as="targetPoint" />
          </mxGeometry>
        </mxCell>
        <mxCell id="lIVeAZPHsfm-N3jlMj18-62" value="" style="ellipse;whiteSpace=wrap;html=1;aspect=fixed;" parent="1" vertex="1">
          <mxGeometry x="241" y="720" width="150" height="150" as="geometry" />
        </mxCell>
        <mxCell id="lIVeAZPHsfm-N3jlMj18-63" value="&lt;u&gt;&lt;b&gt;WB_Load&lt;/b&gt;&lt;/u&gt;" style="text;html=1;strokeColor=none;fillColor=none;align=center;verticalAlign=middle;whiteSpace=wrap;rounded=0;fontSize=14;" parent="1" vertex="1">
          <mxGeometry x="231" y="730" width="170" height="30" as="geometry" />
        </mxCell>
        <mxCell id="lIVeAZPHsfm-N3jlMj18-64" value="RegDest = MemReg" style="text;html=1;strokeColor=none;fillColor=none;align=center;verticalAlign=middle;whiteSpace=wrap;rounded=0;fontSize=14;" parent="1" vertex="1">
          <mxGeometry x="244.1300000000001" y="780" width="143.75" height="30" as="geometry" />
        </mxCell>
        <mxCell id="lIVeAZPHsfm-N3jlMj18-65" value="RegWrite" style="text;html=1;strokeColor=none;fillColor=none;align=center;verticalAlign=middle;whiteSpace=wrap;rounded=0;fontSize=14;" parent="1" vertex="1">
          <mxGeometry x="250.3800000000001" y="800" width="137.5" height="30" as="geometry" />
        </mxCell>
        <mxCell id="lIVeAZPHsfm-N3jlMj18-67" value="" style="ellipse;whiteSpace=wrap;html=1;aspect=fixed;" parent="1" vertex="1">
          <mxGeometry x="416" y="510" width="160" height="160" as="geometry" />
        </mxCell>
        <mxCell id="lIVeAZPHsfm-N3jlMj18-68" value="&lt;u&gt;&lt;b&gt;MEM_Store&lt;/b&gt;&lt;/u&gt;" style="text;html=1;strokeColor=none;fillColor=none;align=center;verticalAlign=middle;whiteSpace=wrap;rounded=0;fontSize=14;" parent="1" vertex="1">
          <mxGeometry x="411" y="530" width="170" height="30" as="geometry" />
        </mxCell>
        <mxCell id="lIVeAZPHsfm-N3jlMj18-69" value="MemWrite" style="text;html=1;strokeColor=none;fillColor=none;align=center;verticalAlign=middle;whiteSpace=wrap;rounded=0;fontSize=14;" parent="1" vertex="1">
          <mxGeometry x="427.25" y="580" width="137.5" height="30" as="geometry" />
        </mxCell>
        <mxCell id="Dzcakjx7eH07sra7kQO5-54" style="edgeStyle=orthogonalEdgeStyle;rounded=0;orthogonalLoop=1;jettySize=auto;html=1;exitX=0.5;exitY=1;exitDx=0;exitDy=0;endArrow=none;endFill=0;" parent="1" source="Dzcakjx7eH07sra7kQO5-1" edge="1">
          <mxGeometry relative="1" as="geometry">
            <mxPoint x="751" y="940" as="targetPoint" />
            <Array as="points">
              <mxPoint x="1341" y="495" />
              <mxPoint x="1341" y="940" />
            </Array>
          </mxGeometry>
        </mxCell>
        <mxCell id="Dzcakjx7eH07sra7kQO5-1" value="" style="ellipse;whiteSpace=wrap;html=1;aspect=fixed;" parent="1" vertex="1">
          <mxGeometry x="1241" y="285.31" width="210" height="210" as="geometry" />
        </mxCell>
        <mxCell id="Dzcakjx7eH07sra7kQO5-2" value="PCWriteCond" style="text;html=1;strokeColor=none;fillColor=none;align=center;verticalAlign=middle;whiteSpace=wrap;rounded=0;fontSize=14;" parent="1" vertex="1">
          <mxGeometry x="1277.25" y="340.30999999999995" width="137.5" height="30" as="geometry" />
        </mxCell>
        <mxCell id="Dzcakjx7eH07sra7kQO5-3" value="PCSource =&amp;nbsp; AluReg" style="text;html=1;strokeColor=none;fillColor=none;align=center;verticalAlign=middle;whiteSpace=wrap;rounded=0;fontSize=14;" parent="1" vertex="1">
          <mxGeometry x="1277.25" y="360.30999999999995" width="137.5" height="30" as="geometry" />
        </mxCell>
        <mxCell id="Dzcakjx7eH07sra7kQO5-4" value="SelAluA = RegA" style="text;html=1;strokeColor=none;fillColor=none;align=center;verticalAlign=middle;whiteSpace=wrap;rounded=0;fontSize=14;" parent="1" vertex="1">
          <mxGeometry x="1283.5" y="380.30999999999995" width="125" height="30" as="geometry" />
        </mxCell>
        <mxCell id="Dzcakjx7eH07sra7kQO5-5" value="&lt;u&gt;&lt;b&gt;EX_branch&lt;/b&gt;&lt;/u&gt;" style="text;html=1;strokeColor=none;fillColor=none;align=center;verticalAlign=middle;whiteSpace=wrap;rounded=0;fontSize=14;" parent="1" vertex="1">
          <mxGeometry x="1261" y="310.30999999999995" width="170" height="30" as="geometry" />
        </mxCell>
        <mxCell id="Dzcakjx7eH07sra7kQO5-6" value="&lt;span style=&quot;color: rgb(0, 0, 0); font-family: Helvetica; font-size: 14px; font-style: normal; font-variant-ligatures: normal; font-variant-caps: normal; font-weight: 400; letter-spacing: normal; orphans: 2; text-align: center; text-indent: 0px; text-transform: none; widows: 2; word-spacing: 0px; -webkit-text-stroke-width: 0px; background-color: rgb(251, 251, 251); text-decoration-thickness: initial; text-decoration-style: initial; text-decoration-color: initial; float: none; display: inline !important;&quot;&gt;SelAluB = RegB&lt;/span&gt;" style="text;whiteSpace=wrap;html=1;" parent="1" vertex="1">
          <mxGeometry x="1296" y="400.30999999999995" width="130" height="35" as="geometry" />
        </mxCell>
        <mxCell id="Dzcakjx7eH07sra7kQO5-7" value="AluCtrl =&amp;nbsp; SUB" style="text;html=1;strokeColor=none;fillColor=none;align=center;verticalAlign=middle;whiteSpace=wrap;rounded=0;fontSize=14;" parent="1" vertex="1">
          <mxGeometry x="1283.5" y="420.30999999999995" width="125" height="30" as="geometry" />
        </mxCell>
        <mxCell id="Dzcakjx7eH07sra7kQO5-8" value="" style="ellipse;whiteSpace=wrap;html=1;aspect=fixed;" parent="1" vertex="1">
          <mxGeometry x="1471" y="285.31" width="210" height="210" as="geometry" />
        </mxCell>
        <mxCell id="Dzcakjx7eH07sra7kQO5-9" value="RegDst = PC" style="text;html=1;strokeColor=none;fillColor=none;align=center;verticalAlign=middle;whiteSpace=wrap;rounded=0;fontSize=14;" parent="1" vertex="1">
          <mxGeometry x="1507.25" y="340.30999999999995" width="137.5" height="30" as="geometry" />
        </mxCell>
        <mxCell id="Dzcakjx7eH07sra7kQO5-10" value="RegWrite" style="text;html=1;strokeColor=none;fillColor=none;align=center;verticalAlign=middle;whiteSpace=wrap;rounded=0;fontSize=14;" parent="1" vertex="1">
          <mxGeometry x="1503.5" y="360.30999999999995" width="137.5" height="30" as="geometry" />
        </mxCell>
        <mxCell id="Dzcakjx7eH07sra7kQO5-11" value="PCWrite" style="text;html=1;strokeColor=none;fillColor=none;align=center;verticalAlign=middle;whiteSpace=wrap;rounded=0;fontSize=14;" parent="1" vertex="1">
          <mxGeometry x="1507.25" y="380.30999999999995" width="125" height="30" as="geometry" />
        </mxCell>
        <mxCell id="Dzcakjx7eH07sra7kQO5-12" value="&lt;u&gt;&lt;b&gt;EX_jal&lt;/b&gt;&lt;/u&gt;" style="text;html=1;strokeColor=none;fillColor=none;align=center;verticalAlign=middle;whiteSpace=wrap;rounded=0;fontSize=14;" parent="1" vertex="1">
          <mxGeometry x="1491" y="310.30999999999995" width="170" height="30" as="geometry" />
        </mxCell>
        <mxCell id="Dzcakjx7eH07sra7kQO5-13" value="&lt;div style=&quot;text-align: center;&quot;&gt;&lt;span style=&quot;background-color: initial; font-size: 14px;&quot;&gt;PCSource = AluReg&lt;/span&gt;&lt;/div&gt;" style="text;whiteSpace=wrap;html=1;" parent="1" vertex="1">
          <mxGeometry x="1511" y="400.30999999999995" width="130" height="35" as="geometry" />
        </mxCell>
        <mxCell id="Dzcakjx7eH07sra7kQO5-15" value="" style="ellipse;whiteSpace=wrap;html=1;aspect=fixed;" parent="1" vertex="1">
          <mxGeometry x="1704.75" y="287.81" width="235" height="235" as="geometry" />
        </mxCell>
        <mxCell id="Dzcakjx7eH07sra7kQO5-16" value="RegDst = PC" style="text;html=1;strokeColor=none;fillColor=none;align=center;verticalAlign=middle;whiteSpace=wrap;rounded=0;fontSize=14;" parent="1" vertex="1">
          <mxGeometry x="1757.25" y="340.30999999999995" width="137.5" height="30" as="geometry" />
        </mxCell>
        <mxCell id="Dzcakjx7eH07sra7kQO5-17" value="RegWrite" style="text;html=1;strokeColor=none;fillColor=none;align=center;verticalAlign=middle;whiteSpace=wrap;rounded=0;fontSize=14;" parent="1" vertex="1">
          <mxGeometry x="1753.5" y="360.30999999999995" width="137.5" height="30" as="geometry" />
        </mxCell>
        <mxCell id="Dzcakjx7eH07sra7kQO5-18" value="PCWrite" style="text;html=1;strokeColor=none;fillColor=none;align=center;verticalAlign=middle;whiteSpace=wrap;rounded=0;fontSize=14;" parent="1" vertex="1">
          <mxGeometry x="1757.25" y="380.30999999999995" width="125" height="30" as="geometry" />
        </mxCell>
        <mxCell id="Dzcakjx7eH07sra7kQO5-19" value="&lt;u&gt;&lt;b&gt;EX_jalR&lt;/b&gt;&lt;/u&gt;" style="text;html=1;strokeColor=none;fillColor=none;align=center;verticalAlign=middle;whiteSpace=wrap;rounded=0;fontSize=14;" parent="1" vertex="1">
          <mxGeometry x="1741" y="310.30999999999995" width="170" height="30" as="geometry" />
        </mxCell>
        <mxCell id="Dzcakjx7eH07sra7kQO5-20" value="&lt;div style=&quot;text-align: center;&quot;&gt;&lt;span style=&quot;background-color: initial; font-size: 14px;&quot;&gt;PCSource = AluOut&lt;/span&gt;&lt;/div&gt;" style="text;whiteSpace=wrap;html=1;" parent="1" vertex="1">
          <mxGeometry x="1761" y="400.30999999999995" width="130" height="35" as="geometry" />
        </mxCell>
        <mxCell id="Dzcakjx7eH07sra7kQO5-21" value="SelAluA = RegA" style="text;html=1;strokeColor=none;fillColor=none;align=center;verticalAlign=middle;whiteSpace=wrap;rounded=0;fontSize=14;" parent="1" vertex="1">
          <mxGeometry x="1762" y="420.30999999999995" width="125" height="30" as="geometry" />
        </mxCell>
        <mxCell id="Dzcakjx7eH07sra7kQO5-22" value="&lt;span style=&quot;color: rgb(0, 0, 0); font-family: Helvetica; font-size: 14px; font-style: normal; font-variant-ligatures: normal; font-variant-caps: normal; font-weight: 400; letter-spacing: normal; orphans: 2; text-align: center; text-indent: 0px; text-transform: none; widows: 2; word-spacing: 0px; -webkit-text-stroke-width: 0px; background-color: rgb(251, 251, 251); text-decoration-thickness: initial; text-decoration-style: initial; text-decoration-color: initial; float: none; display: inline !important;&quot;&gt;SelAluB = Immediate&lt;/span&gt;" style="text;whiteSpace=wrap;html=1;" parent="1" vertex="1">
          <mxGeometry x="1761" y="440.30999999999995" width="140" height="35" as="geometry" />
        </mxCell>
        <mxCell id="Dzcakjx7eH07sra7kQO5-23" value="AluCtrl =&amp;nbsp; ADD" style="text;html=1;strokeColor=none;fillColor=none;align=center;verticalAlign=middle;whiteSpace=wrap;rounded=0;fontSize=14;" parent="1" vertex="1">
          <mxGeometry x="1762" y="460.30999999999995" width="125" height="30" as="geometry" />
        </mxCell>
        <mxCell id="Dzcakjx7eH07sra7kQO5-51" style="edgeStyle=orthogonalEdgeStyle;rounded=0;orthogonalLoop=1;jettySize=auto;html=1;exitX=0.5;exitY=1;exitDx=0;exitDy=0;endArrow=none;endFill=0;" parent="1" source="lIVeAZPHsfm-N3jlMj18-67" edge="1">
          <mxGeometry relative="1" as="geometry">
            <mxPoint x="326" y="880" as="sourcePoint" />
            <mxPoint x="496" y="940" as="targetPoint" />
          </mxGeometry>
        </mxCell>
        <mxCell id="Dzcakjx7eH07sra7kQO5-57" style="edgeStyle=orthogonalEdgeStyle;rounded=0;orthogonalLoop=1;jettySize=auto;html=1;exitX=0.5;exitY=1;exitDx=0;exitDy=0;endArrow=none;endFill=0;" parent="1" source="Dzcakjx7eH07sra7kQO5-8" edge="1">
          <mxGeometry relative="1" as="geometry">
            <mxPoint x="1086" y="515" as="sourcePoint" />
            <mxPoint x="761" y="940" as="targetPoint" />
            <Array as="points">
              <mxPoint x="1571" y="495" />
              <mxPoint x="1571" y="940" />
            </Array>
          </mxGeometry>
        </mxCell>
        <mxCell id="Dzcakjx7eH07sra7kQO5-58" style="edgeStyle=orthogonalEdgeStyle;rounded=0;orthogonalLoop=1;jettySize=auto;html=1;exitX=0.5;exitY=1;exitDx=0;exitDy=0;endArrow=none;endFill=0;" parent="1" source="Dzcakjx7eH07sra7kQO5-15" edge="1">
          <mxGeometry relative="1" as="geometry">
            <mxPoint x="1316" y="515" as="sourcePoint" />
            <mxPoint x="771" y="940" as="targetPoint" />
            <Array as="points">
              <mxPoint x="1552" y="940" />
              <mxPoint x="771" y="940" />
            </Array>
          </mxGeometry>
        </mxCell>
        <mxCell id="cBMvr3t4wvWgSP50QU_j-21" style="rounded=0;orthogonalLoop=1;jettySize=auto;html=1;exitX=0.5;exitY=1;exitDx=0;exitDy=0;endArrow=none;endFill=0;" parent="1" source="cBMvr3t4wvWgSP50QU_j-1" edge="1">
          <mxGeometry relative="1" as="geometry">
            <mxPoint x="1091" y="940" as="targetPoint" />
          </mxGeometry>
        </mxCell>
        <mxCell id="cBMvr3t4wvWgSP50QU_j-1" value="" style="ellipse;whiteSpace=wrap;html=1;aspect=fixed;" parent="1" vertex="1">
          <mxGeometry x="1011" y="310.30999999999995" width="161.72" height="161.72" as="geometry" />
        </mxCell>
        <mxCell id="cBMvr3t4wvWgSP50QU_j-2" value="LUI" style="edgeStyle=orthogonalEdgeStyle;rounded=0;orthogonalLoop=1;jettySize=auto;html=1;exitX=0.752;exitY=0.947;exitDx=0;exitDy=0;curved=1;exitPerimeter=0;" parent="1" source="lIVeAZPHsfm-N3jlMj18-12" target="cBMvr3t4wvWgSP50QU_j-1" edge="1">
          <mxGeometry x="0.5487" y="19" relative="1" as="geometry">
            <mxPoint as="offset" />
            <mxPoint x="1088" y="202" as="sourcePoint" />
            <mxPoint x="1316" y="305" as="targetPoint" />
          </mxGeometry>
        </mxCell>
        <mxCell id="cBMvr3t4wvWgSP50QU_j-8" style="edgeStyle=orthogonalEdgeStyle;rounded=0;orthogonalLoop=1;jettySize=auto;html=1;exitX=0.642;exitY=0.975;exitDx=0;exitDy=0;entryX=1;entryY=0.5;entryDx=0;entryDy=0;curved=1;exitPerimeter=0;" parent="1" source="lIVeAZPHsfm-N3jlMj18-12" target="lIVeAZPHsfm-N3jlMj18-38" edge="1">
          <mxGeometry relative="1" as="geometry">
            <Array as="points">
              <mxPoint x="1044" y="220" />
              <mxPoint x="1031" y="220" />
              <mxPoint x="1031" y="290" />
              <mxPoint x="951" y="290" />
              <mxPoint x="951" y="613" />
            </Array>
            <mxPoint x="1031" y="225" as="sourcePoint" />
            <mxPoint x="866" y="325" as="targetPoint" />
          </mxGeometry>
        </mxCell>
        <mxCell id="cBMvr3t4wvWgSP50QU_j-9" value="AUIPC&lt;br&gt;" style="edgeLabel;html=1;align=center;verticalAlign=middle;resizable=0;points=[];" parent="cBMvr3t4wvWgSP50QU_j-8" vertex="1" connectable="0">
          <mxGeometry x="0.3735" y="1" relative="1" as="geometry">
            <mxPoint x="51" y="-267" as="offset" />
          </mxGeometry>
        </mxCell>
        <mxCell id="cBMvr3t4wvWgSP50QU_j-14" value="SelAluB =&amp;nbsp; Immediate" style="text;html=1;strokeColor=none;fillColor=none;align=center;verticalAlign=middle;whiteSpace=wrap;rounded=0;fontSize=14;" parent="1" vertex="1">
          <mxGeometry x="1025.2199999999998" y="370" width="137.5" height="30" as="geometry" />
        </mxCell>
        <mxCell id="cBMvr3t4wvWgSP50QU_j-15" value="AluCtrl =&amp;nbsp; LUI" style="text;html=1;strokeColor=none;fillColor=none;align=center;verticalAlign=middle;whiteSpace=wrap;rounded=0;fontSize=14;" parent="1" vertex="1">
          <mxGeometry x="1029.3600000000001" y="395" width="125" height="30" as="geometry" />
        </mxCell>
        <mxCell id="cBMvr3t4wvWgSP50QU_j-16" value="&lt;u&gt;&lt;b&gt;EX_LUI&lt;/b&gt;&lt;/u&gt;" style="text;html=1;strokeColor=none;fillColor=none;align=center;verticalAlign=middle;whiteSpace=wrap;rounded=0;fontSize=14;" parent="1" vertex="1">
          <mxGeometry x="1002.7199999999998" y="335.30999999999995" width="170" height="30" as="geometry" />
        </mxCell>
        <mxCell id="cBMvr3t4wvWgSP50QU_j-23" value="MemRead" style="text;html=1;strokeColor=none;fillColor=none;align=center;verticalAlign=middle;whiteSpace=wrap;rounded=0;fontSize=14;" parent="1" vertex="1">
          <mxGeometry x="241" y="585" width="137.5" height="30" as="geometry" />
        </mxCell>
      </root>
    </mxGraphModel>
  </diagram>
</mxfile>
